<?xml version="1.0" standalone="no"?>
<!DOCTYPE svg PUBLIC "-//W3C//DTD SVG 20010904//EN"
 "http://www.w3.org/TR/2001/REC-SVG-20010904/DTD/svg10.dtd">
<svg version="1.0" xmlns="http://www.w3.org/2000/svg"
 width="768.000000pt" height="768.000000pt" viewBox="0 0 768.000000 768.000000"
 preserveAspectRatio="xMidYMid meet">
<metadata>
Created by potrace 1.11, written by Peter Selinger 2001-2013
</metadata>
<g transform="translate(0.000000,768.000000) scale(0.100000,-0.100000)"
fill="#000000" stroke="none">
<path d="M2965 5209 c-3 -5 -6 -244 -4 -319 0 -8 0 -80 0 -160 0 -80 0 -154 0
-165 0 -18 1 -497 0 -520 -2 -212 -3 -415 -2 -435 5 -114 -6 -443 -17 -495
-19 -91 -49 -165 -91 -225 -28 -40 -113 -121 -120 -114 -2 2 -11 -2 -20 -9
-47 -40 -143 -61 -286 -61 -116 0 -161 6 -230 29 -96 33 -167 94 -242 210 -26
38 -48 72 -50 75 -2 2 -12 -1 -22 -7 -10 -6 -72 -39 -139 -73 l-121 -61 17
-45 c9 -24 20 -44 24 -44 4 0 8 -5 8 -11 0 -19 91 -141 140 -186 178 -170 444
-244 745 -210 139 15 293 70 381 134 17 13 34 23 37 23 21 0 127 105 171 170
52 76 108 204 122 279 3 14 7 27 9 31 2 4 7 29 11 56 3 27 9 58 12 69 7 28 11
2065 3 2066 -25 5 -333 3 -336 -2z"/>
<path d="M4079 5205 c-3 -34 -4 -2762 -1 -2772 3 -8 52 -12 175 -12 l172 0 0
598 0 599 309 -2 c263 -1 310 -3 317 -16 11 -18 162 -333 164 -340 1 -3 26
-57 57 -120 146 -301 208 -433 208 -441 0 -5 5 -9 12 -9 6 0 9 -3 6 -6 -3 -3
23 -63 58 -134 l64 -129 195 0 c181 0 194 1 185 17 -14 25 -264 536 -265 542
0 3 -33 71 -73 151 -40 80 -72 151 -72 157 0 7 -4 12 -10 12 -5 0 -10 4 -10 9
0 6 -36 83 -80 172 -44 89 -78 165 -75 167 3 3 5 3 5 -1 0 -3 35 6 78 19 42
14 82 26 87 27 6 2 47 23 93 47 91 49 188 136 239 215 18 28 36 55 41 60 16
19 63 144 81 218 24 93 22 337 -3 407 -8 25 -16 52 -16 61 0 47 -114 233 -185
303 -54 52 -155 121 -195 131 -3 1 -17 7 -31 13 -31 12 -103 32 -139 38 -14 2
-36 7 -50 11 -49 12 -123 14 -727 16 -410 2 -613 -1 -614 -8z m1108 -316 c252
-3 385 -74 470 -249 27 -55 31 -67 36 -105 2 -12 6 -25 9 -30 7 -12 2 -180 -6
-219 -4 -16 -11 -37 -17 -48 -5 -10 -7 -18 -5 -18 15 0 -62 -111 -104 -150
-56 -53 -80 -73 -80 -66 0 3 -17 -3 -37 -14 -21 -10 -49 -21 -63 -24 -14 -3
-36 -8 -50 -12 -14 -4 -225 -8 -470 -9 l-445 -3 0 474 0 473 35 3 c32 3 444 1
727 -3z"/>
</g>
</svg>
