<svg width="184.942431640625px" height="192.44375px" xmlns="http://www.w3.org/2000/svg" viewBox="157.5287841796875 -21.221874999999997 184.942431640625 192.44375" style="background-color: rgba(0, 0, 0, 0); background-position: initial initial; background-repeat: initial initial;" preserveAspectRatio="xMidYMid"><defs><linearGradient id="editing-gradient-gradient" x1="0" x2="1" y1="0.5" y2="0.5" gradientUnits="objectBoundingBox"><stop offset="0" stop-color="#3da9fc"></stop><stop offset="1" stop-color="#95d1ff"></stop></linearGradient></defs><g><g transform="translate(191.55000233650208, 110.5453109741211)"><path d="M23 1.20L23 1.20L23 1.20Q8.20 1.20 2.80-11.40L2.80-11.40L10-15.10L10-15.10Q12.10-10.80 15-8.90L15-8.90L15-8.90Q17.90-7 23.10-7L23.10-7L23.10-7Q36.40-7 36.40-22.70L36.40-22.70L36.40-70L45.10-70L45.10-23L45.10-23Q45.10-16.10 43.10-11.15L43.10-11.15L43.10-11.15Q41.10-6.20 37.70-3.65L37.70-3.65L37.70-3.65Q34.30-1.10 30.65 0.05L30.65 0.05L30.65 0.05Q27 1.20 23 1.20ZM73.10 0L64.40 0L64.40-70L92-70L92-70Q103.60-70 108.85-64.30L108.85-64.30L108.85-64.30Q114.10-58.60 114.10-50.10L114.10-50.10L114.10-50.10Q114.10-43.20 110.05-37.75L110.05-37.75L110.05-37.75Q106-32.30 97.80-30.60L97.80-30.60L112.80 0L103 0L88.60-30L73.10-30L73.10 0ZM73.10-61.90L73.10-38.10L92.20-38.10L92.20-38.10Q99-38.10 102.15-41.50L102.15-41.50L102.15-41.50Q105.30-44.90 105.30-49.90L105.30-49.90L105.30-49.90Q105.30-54.70 102.25-58.30L102.25-58.30L102.25-58.30Q99.20-61.90 92.20-61.90L92.20-61.90L73.10-61.90Z" fill="url(#editing-gradient-gradient)"></path></g></g><style>text {
  font-size: 64px;
  font-family: Arial Black;
  dominant-baseline: central;
  text-anchor: middle;
}</style></svg>